<svg id="Layer_1" enable-background="new 0 0 512 512" height="512" viewBox="0 0 512 512" width="512" xmlns="http://www.w3.org/2000/svg"><g><path d="m492 64.36v350.31c0 14.21-11.56 25.77-25.78 25.77l-26.02 3.48-122.4 19.02h-123.6l-148.42-22.5c-14.22 0-25.78-11.56-25.78-25.77v-350.31c0-14.21 11.56-25.78 25.78-25.78h420.44c14.22 0 25.78 11.57 25.78 25.78z" fill="#5fe1ff"/><path d="m492 64.36v350.31c0 14.21-11.56 25.77-25.78 25.77l-26.02 3.48-3.98-3.48c14.22 0 25.78-11.56 25.78-25.77v-350.31c0-14.21-11.56-25.78-25.78-25.78h30c14.22 0 25.78 11.57 25.78 25.78z" fill="#3eb6ff"/><path d="m492 64.36v22h-472v-22c0-14.21 11.56-25.78 25.78-25.78h420.44c14.22 0 25.78 11.57 25.78 25.78z" fill="#325a93"/><path d="m492 392.39v22.28c0 14.21-11.56 25.77-25.78 25.77l-26.02 3.48-122.4 19.02h-123.6l-148.42-22.5c-14.22 0-25.78-11.56-25.78-25.77v-22.28z" fill="#325a93"/><path d="m492 64.36v22h-30v-22c0-14.21-11.56-25.78-25.78-25.78h30c14.22 0 25.78 11.57 25.78 25.78z" fill="#132d77"/><path d="m462 392.39h30v22.28c0 14.21-11.56 25.77-25.78 25.77l-26.02 3.48-3.98-3.48c14.22 0 25.78-11.56 25.78-25.77z" fill="#132d77"/><path d="m512 442.05c0 17.32-14.04 31.37-31.37 31.37h-449.26c-17.33 0-31.37-14.05-31.37-31.37 0-5.36 4.35-9.71 9.71-9.71h182.62l10.3 10.72h106.74l10.3-10.72h182.62c5.36 0 9.71 4.35 9.71 9.71z" fill="#9bc9e0"/><path d="m512 442.05c0 17.32-14.04 31.37-31.37 31.37h-35c17.33 0 31.37-14.05 31.37-31.37 0-5.36-4.35-9.71-9.71-9.71h35c5.36 0 9.71 4.35 9.71 9.71z" fill="#79a6b7"/><path d="m427.49 144.94v196.62c0 4.14-3.35 7.5-7.5 7.5h-327.98c-4.15 0-7.5-3.36-7.5-7.5v-196.62c0-4.14 3.35-7.5 7.5-7.5h327.98c4.15 0 7.5 3.36 7.5 7.5z" fill="#ff6187"/><path d="m427.49 144.94v196.62c0 4.14-3.35 7.5-7.5 7.5h-30c4.15 0 7.5-3.36 7.5-7.5v-196.62c0-4.14-3.35-7.5-7.5-7.5h30c4.15 0 7.5 3.36 7.5 7.5z" fill="#f42153"/><path d="m287.428 237.789-46.013-28.827c-1.986-1.245-4.492-1.313-6.543-.177-2.051 1.135-3.324 3.294-3.324 5.639v57.654c0 2.344 1.273 4.504 3.324 5.639.973.539 2.048.806 3.121.806 1.19 0 2.378-.329 3.422-.983l46.013-28.827c1.881-1.179 3.024-3.242 3.024-5.462s-1.143-4.283-3.024-5.462z" fill="#dcf3ff"/></g></svg>